HIERARCHY
ROOT hip
{
  OFFSET 0 0 0
  CHANNELS 6 Xposition Yposition Zposition Zrotation Yrotation Xrotation
  JOINT abdomen
  {
    OFFSET 0 20.6881 -0.73152
    CHANNELS 3 Zrotation Xrotation Yrotation
    JOINT chest
    {
      OFFSET 0 11.7043 -0.48768
      CHANNELS 3 Zrotation Xrotation Yrotation
      JOINT neck
      {
        OFFSET 0 22.1894 -2.19456
        CHANNELS 3 Zrotation Xrotation Yrotation
        JOINT head
        {
          OFFSET -0.24384 7.07133 1.2192
          CHANNELS 3 Zrotation Xrotation Yrotation
          JOINT leftEye
          {
            OFFSET 4.14528 8.04674 8.04672
            CHANNELS 3 Zrotation Xrotation Yrotation
            End Site
            {
              OFFSET 1 0 0
            }
          }
          JOINT rightEye
          {
            OFFSET -3.6576 8.04674 8.04672
            CHANNELS 3 Zrotation Xrotation Yrotation
            End Site
            {
              OFFSET 1 0 0
            }
          }
        }
      }
      JOINT rCollar
      {
        OFFSET -2.68224 19.2634 -4.8768
        CHANNELS 3 Zrotation Xrotation Yrotation
        JOINT rShldr
        {
          OFFSET -8.77824 -1.95073 1.46304
          CHANNELS 3 Zrotation Xrotation Yrotation
          JOINT rForeArm
          {
            OFFSET -28.1742 -1.7115 0.48768
            CHANNELS 3 Zrotation Xrotation Yrotation
            JOINT rHand
            {
              OFFSET -22.5879 0.773209 7.07136
              CHANNELS 3 Zrotation Xrotation Yrotation
              JOINT rThumb1
              {
                OFFSET -1.2192 -0.487915 3.41376
                CHANNELS 3 Zrotation Xrotation Yrotation
                JOINT rThumb2
                {
                  OFFSET -3.37035 -0.52449 3.41376
                  CHANNELS 3 Zrotation Xrotation Yrotation
                  End Site
                  {
                    OFFSET -1.78271 -1.18214 1.43049
                  }
                }
              }
              JOINT rIndex1
              {
                OFFSET -7.75947 0.938293 5.60832
                CHANNELS 3 Zrotation Xrotation Yrotation
                JOINT rIndex2
                {
                  OFFSET -2.54057 -0.884171 1.56538
                  CHANNELS 3 Zrotation Xrotation Yrotation
                  End Site
                  {
                    OFFSET -1.62519 -0.234802 1.16502
                  }
                }
              }
              JOINT rMid1
              {
                OFFSET -8.24714 1.18213 3.41376
                CHANNELS 3 Zrotation Xrotation Yrotation
                JOINT rMid2
                {
                  OFFSET -3.10165 -0.590103 1.0647
                  CHANNELS 3 Zrotation Xrotation Yrotation
                  End Site
                  {
                    OFFSET -2.48547 -0.328903 0.83742
                  }
                }
              }
              JOINT rRing1
              {
                OFFSET -8.82822 0.546677 1.51678
                CHANNELS 3 Zrotation Xrotation Yrotation
                JOINT rRing2
                {
                  OFFSET -2.60934 -0.819778 -0.0198488
                  CHANNELS 3 Zrotation Xrotation Yrotation
                  End Site
                  {
                    OFFSET -2.33842 -0.294052 0.168128
                  }
                }
              }
              JOINT rPinky1
              {
                OFFSET -8.27202 -0.0477905 -0.4584
                CHANNELS 3 Zrotation Xrotation Yrotation
                JOINT rPinky2
                {
                  OFFSET -1.82734 -0.647385 -0.700984
                  CHANNELS 3 Zrotation Xrotation Yrotation
                  End Site
                  {
                    OFFSET -1.69225 -0.51767 -0.607171
                  }
                }
              }
            }
          }
        }
      }
      JOINT lCollar
      {
        OFFSET 2.68224 19.2634 -4.8768
        CHANNELS 3 Zrotation Xrotation Yrotation
        JOINT lShldr
        {
          OFFSET 8.77824 -1.95073 1.46304
          CHANNELS 3 Zrotation Xrotation Yrotation
          JOINT lForeArm
          {
            OFFSET 28.1742 -1.7115 0.48768
            CHANNELS 3 Zrotation Xrotation Yrotation
            JOINT lHand
            {
              OFFSET 22.5879 0.773209 7.07136
              CHANNELS 3 Zrotation Xrotation Yrotation
              JOINT lThumb1
              {
                OFFSET 1.2192 -0.487915 3.41376
                CHANNELS 3 Zrotation Xrotation Yrotation
                JOINT lThumb2
                {
                  OFFSET 3.37035 -0.52449 3.41376
                  CHANNELS 3 Zrotation Xrotation Yrotation
                  End Site
                  {
                    OFFSET 1.78271 -1.18214 1.43049
                  }
                }
              }
              JOINT lIndex1
              {
                OFFSET 7.75947 0.938293 5.60832
                CHANNELS 3 Zrotation Xrotation Yrotation
                JOINT lIndex2
                {
                  OFFSET 2.54057 -0.884171 1.56538
                  CHANNELS 3 Zrotation Xrotation Yrotation
                  End Site
                  {
                    OFFSET 1.62519 -0.234802 1.16502
                  }
                }
              }
              JOINT lMid1
              {
                OFFSET 8.24714 1.18213 3.41376
                CHANNELS 3 Zrotation Xrotation Yrotation
                JOINT lMid2
                {
                  OFFSET 3.10165 -0.590103 1.0647
                  CHANNELS 3 Zrotation Xrotation Yrotation
                  End Site
                  {
                    OFFSET 2.48547 -0.328903 0.83742
                  }
                }
              }
              JOINT lRing1
              {
                OFFSET 8.82822 0.546677 1.51678
                CHANNELS 3 Zrotation Xrotation Yrotation
                JOINT lRing2
                {
                  OFFSET 2.60934 -0.819778 -0.0198488
                  CHANNELS 3 Zrotation Xrotation Yrotation
                  End Site
                  {
                    OFFSET 2.33842 -0.294052 0.168128
                  }
                }
              }
              JOINT lPinky1
              {
                OFFSET 8.27202 -0.0477905 -0.4584
                CHANNELS 3 Zrotation Xrotation Yrotation
                JOINT lPinky2
                {
                  OFFSET 1.82734 -0.647385 -0.700984
                  CHANNELS 3 Zrotation Xrotation Yrotation
                  End Site
                  {
                    OFFSET 1.69225 -0.51767 -0.607171
                  }
                }
              }
            }
          }
        }
      }
    }
  }
  JOINT rButtock
  {
    OFFSET -8.77824 4.35084 1.2192
    CHANNELS 3 Zrotation Xrotation Yrotation
    JOINT rThigh
    {
      OFFSET 0 -1.70687 -2.19456
      CHANNELS 3 Zrotation Xrotation Yrotation
      JOINT rShin
      {
        OFFSET 0 -36.8199 0.73152
        CHANNELS 3 Zrotation Xrotation Yrotation
        JOINT rFoot
        {
          OFFSET 0.73152 -45.1104 -5.12064
          CHANNELS 3 Zrotation Xrotation Yrotation
          End Site
          {
            OFFSET -1.1221 -3.69964 12.103
          }
        }
      }
    }
  }
  JOINT lButtock
  {
    OFFSET 8.77824 4.35084 1.2192
    CHANNELS 3 Zrotation Xrotation Yrotation
    JOINT lThigh
    {
      OFFSET 0 -1.70687 -2.19456
      CHANNELS 3 Zrotation Xrotation Yrotation
      JOINT lShin
      {
        OFFSET 0 -36.8199 0.73152
        CHANNELS 3 Zrotation Xrotation Yrotation
        JOINT lFoot
        {
          OFFSET -0.73152 -45.1104 -5.12064
          CHANNELS 3 Zrotation Xrotation Yrotation
          End Site
          {
            OFFSET 1.1221 -3.69964 12.103
          }
        }
      }
    }
  }
}
MOTION
Frames:	6
Frame Time:	0.00833333
1.49155 84.9173 -157.029 0.0 0.0 0.0 -0.140625 -0.000295014 -0.00400526 -0.0387669 -0.000394547 -0.00671564 -1.28354e-15 -2.38542e-15 -9.31804e-18 -3.8763e-15 -6.36111e-15 -1.70831e-17 -0.0 0.0 0.0 -0.0 0.0 0.0 -7.46788e-16 9.70628e-19 1.49089e-16 -1.03732e-14 2.60905e-16 7.95139e-16 -2.34516e-13 7.0171e-14 -1.59028e-14 -2.67458e-12 -7.04195e-14 -1.27222e-14 -6.30961e-12 -5.16425e-15 -2.8625e-14 -1.08974e-11 -1.27222e-14 -6.2816e-14 -6.30267e-12 -1.98785e-15 -4.45278e-14 7.73091 5.47488 0.417314 -6.30952e-12 -4.96962e-15 -3.18055e-14 2.90554 0.965183 0.102902 -6.30356e-12 -5.06901e-15 -3.26007e-14 10.2786 0.731801 0.0259123 -6.31082e-12 -5.96354e-15 -2.54444e-14 2.22167 -0.733487 -0.20892 -6.4475e-16 7.76503e-19 -1.49089e-16 -1.66698e-14 2.48481e-16 -9.93923e-16 -2.31982e-13 -7.09661e-14 2.22639e-14 -2.67739e-12 6.66177e-14 -3.18055e-14 -6.31018e-12 -1.6076e-14 -3.18055e-14 -1.08998e-11 -3.49861e-14 -4.92986e-14 -6.31579e-12 -1.39149e-14 -2.22639e-14 -7.73091 5.47488 -0.417314 -6.31097e-12 -1.5704e-14 -3.49861e-14 -2.90554 0.965183 -0.102902 -6.32289e-12 -1.54058e-14 -3.02153e-14 -10.2786 0.731801 -0.0259123 -6.31181e-12 -1.59028e-14 -3.81667e-14 -2.22167 -0.733487 0.20892 -2.03217e-16 0.0 -3.88251e-19 0.415456 -2.89234 -0.0363696 -0.00657582 -0.313961 -0.0578456 -0.521688 3.20536 0.125419 2.03217e-16 0.0 3.88251e-19 -0.629349 -3.43714 0.049731 0.00497786 0.672915 0.0432303 0.52314 2.76331 -0.11651
4.45045 83.4257 -158.91 -3.3337 39.0207 -0.3821 1.22365 0.715395 4.2356 -0.0477762 -0.355578 1.20253 4.14026 4.4435 5.62829 -6.77561 -4.56111 10.5431 -0.0 0.0 0.0 -0.0 0.0 0.0 1.70484e-15 -3.10507e-14 1.97857e-14 20.484 7.04269 0.514072 -3.6207 -1.54169 5.76247 0.0103637 -2.25859 -0.316533 -5.78539e-10 -1.0323e-09 5.69694e-10 -1.00431e-09 -1.78618e-09 9.83005e-10 -5.78533e-10 -1.03229e-09 5.69682e-10 7.73091 5.47488 0.417314 -5.78539e-10 -1.0323e-09 5.69692e-10 2.90554 0.965183 0.102902 -5.78534e-10 -1.0323e-09 5.69693e-10 10.2786 0.731801 0.0259123 -5.78542e-10 -1.0323e-09 5.69701e-10 2.22167 -0.733487 -0.20892 1.79419e-15 -3.10494e-14 1.95589e-14 -22.2925 10.0802 -1.72228 3.54677 -1.49762 -5.65727 -0.00152913 -0.867691 0.121896 -7.00637e-10 -4.08011e-10 -3.52728e-11 -1.21304e-09 -7.06871e-10 -6.11042e-11 -7.00642e-10 -4.0801e-10 -3.52635e-11 -7.73091 5.47488 -0.417314 -7.00638e-10 -4.08012e-10 -3.52741e-11 -2.90554 0.965183 -0.102902 -7.00648e-10 -4.08012e-10 -3.5271e-11 -10.2786 0.731801 -0.0259123 -7.00637e-10 -4.08012e-10 -3.52791e-11 -2.22167 -0.733487 0.20892 -2.03217e-16 0.0 -3.88251e-19 0.579828 -4.13988 -5.22725 0.0345755 7.31988 0.129937 -2.04042 -1.64445 -11.7617 2.03217e-16 0.0 3.88251e-19 0.939222 -7.68026 -2.66818 0.00514268 8.67451 -0.059944 0.411836 -0.608906 -0.91036
4.4553 83.4259 -158.911 -3.3136 39.028 -0.3803 2.55194 1.45919 8.71957 -0.0409823 -0.731227 2.48106 7.57193 9.01163 11.688 -12.1556 -8.8864 21.8901 -0.0 0.0 0.0 -0.0 0.0 0.0 5.47128e-15 -6.77616e-14 4.14062e-14 41.9966 14.4884 1.0839 -7.11166 -3.11865 11.8655 -0.0058907 -4.64347 -0.652437 -1.22848e-09 -2.18642e-09 1.19769e-09 -2.13254e-09 -3.78317e-09 2.06657e-09 -1.22848e-09 -2.18642e-09 1.19768e-09 7.73091 5.47488 0.417314 -1.22848e-09 -2.18643e-09 1.19769e-09 2.90554 0.965183 0.102902 -1.22848e-09 -2.18643e-09 1.19769e-09 10.2786 0.731801 0.0259123 -1.22849e-09 -2.18642e-09 1.1977e-09 2.22167 -0.733487 -0.20892 5.54919e-15 -6.77585e-14 4.12571e-14 -45.1591 20.7075 -3.72949 6.97727 -3.03274 -11.6516 0.000873713 -1.78748 0.251205 -1.48707e-09 -8.62244e-10 -6.89314e-11 -2.57459e-09 -1.49381e-09 -1.19449e-10 -1.48707e-09 -8.62244e-10 -6.89222e-11 -7.73091 5.47488 -0.417314 -1.48707e-09 -8.62245e-10 -6.89306e-11 -2.90554 0.965183 -0.102902 -1.48708e-09 -8.62246e-10 -6.89291e-11 -10.2786 0.731801 -0.0259123 -1.48707e-09 -8.62245e-10 -6.89375e-11 -2.22167 -0.733487 0.20892 -2.03217e-16 0.0 -3.88251e-19 0.509749 -5.39719 -10.7341 0.0219636 15.3875 0.338372 -5.77852 -6.23409 -24.4723 2.03217e-16 0.0 3.88251e-19 2.15187 -12.1264 -5.61781 0.0377991 17.134 -0.17542 0.192355 -4.17233 -1.75397
4.46457 83.426 -158.915 -3.247 39.0157 -0.3479 3.63716 2.09985 12.7225 -0.020844 -1.06405 3.62158 9.78804 12.8108 17.277 -15.4876 -11.8304 32.294 -0.0 0.0 0.0 -0.0 0.0 0.0 6.60809e-15 -9.31541e-14 5.90589e-14 61.0498 21.121 1.64084 -9.94511 -4.43827 17.3348 -0.0442195 -6.77493 -0.955535 -1.723e-09 -3.09688e-09 1.70914e-09 -2.99113e-09 -5.35852e-09 2.94914e-09 -1.72299e-09 -3.09688e-09 1.70913e-09 7.73091 5.47488 0.417314 -1.723e-09 -3.09688e-09 1.70914e-09 2.90554 0.965183 0.102902 -1.72299e-09 -3.09688e-09 1.70914e-09 10.2786 0.731801 0.0259123 -1.723e-09 -3.09688e-09 1.70915e-09 2.22167 -0.733487 -0.20892 6.67207e-15 -9.31496e-14 5.8975e-14 -64.8214 30.1224 -5.88391 9.76538 -4.31798 -17.0158 0.00649824 -2.60303 0.366023 -2.08929e-09 -1.224e-09 -1.05755e-10 -3.61732e-09 -2.12054e-09 -1.83214e-10 -2.08929e-09 -1.224e-09 -1.05746e-10 -7.73091 5.47488 -0.417314 -2.08929e-09 -1.224e-09 -1.05752e-10 -2.90554 0.965183 -0.102902 -2.0893e-09 -1.224e-09 -1.05752e-10 -10.2786 0.731801 -0.0259123 -2.08929e-09 -1.224e-09 -1.05761e-10 -2.22167 -0.733487 0.20892 -2.03217e-16 0.0 -3.88251e-19 0.237948 -6.44027 -15.6695 -0.0430565 22.5867 0.544053 -10.7763 -9.29791 -36.0673 2.03217e-16 0.0 3.88251e-19 2.8296 -16.0281 -8.35909 0.0987414 24.6774 -0.290787 -0.0928066 -7.34656 -2.51887
4.47519 83.4264 -158.921 -3.1894 39.0305 -0.3246 4.33604 2.52741 15.5155 0.000802027 -1.29162 4.41653 10.8422 15.1862 21.309 -17.0716 -13.109 39.6941 -0.0 0.0 0.0 -0.0 0.0 0.0 1.17079e-15 -9.02502e-14 6.67917e-14 74.246 25.7274 2.07203 -11.7747 -5.29187 21.1746 -0.0846984 -8.27361 -1.17101 -1.82894e-09 -3.39815e-09 1.92923e-09 -3.17559e-09 -5.87978e-09 3.32923e-09 -1.82893e-09 -3.39815e-09 1.92922e-09 7.73091 5.47488 0.417314 -1.82894e-09 -3.39815e-09 1.92923e-09 2.90554 0.965183 0.102902 -1.82893e-09 -3.39815e-09 1.92923e-09 10.2786 0.731801 0.0259123 -1.82895e-09 -3.39815e-09 1.92924e-09 2.22167 -0.733487 -0.20892 1.21467e-15 -9.02455e-14 6.6742e-14 -77.996 36.617 -7.73479 11.5604 -5.14539 -20.7623 0.0122473 -3.15803 0.444287 -2.23098e-09 -1.35457e-09 -1.50491e-10 -3.86298e-09 -2.34675e-09 -2.60529e-10 -2.23099e-09 -1.35457e-09 -1.50482e-10 -7.73091 5.47488 -0.417314 -2.23098e-09 -1.35457e-09 -1.50488e-10 -2.90554 0.965183 -0.102902 -2.23099e-09 -1.35457e-09 -1.50489e-10 -10.2786 0.731801 -0.0259123 -2.23098e-09 -1.35457e-09 -1.50497e-10 -2.22167 -0.733487 0.20892 -2.03217e-16 0.0 -3.88251e-19 -0.0712456 -7.11517 -19.1274 -0.123158 27.6157 0.705581 -15.0194 -10.6092 -44.2745 2.03217e-16 0.0 3.88251e-19 3.06274 -18.6951 -10.3538 0.162335 29.931 -0.382373 -0.342663 -9.55449 -3.06421
4.48333 83.4264 -158.924 -3.1417 39.0343 -0.304 4.58696 2.68785 16.6107 0.0126985 -1.37218 4.72746 11.0955 15.9006 22.9187 -17.4487 -13.2264 42.6266 -0.0 0.0 0.0 -0.0 0.0 0.0 -2.03367e-14 -2.39704e-14 4.64756e-14 79.3908 27.5025 2.25424 -12.4704 -5.61556 22.7062 -0.104416 -8.8927 -1.26069 -1.21296e-09 -2.65191e-09 1.68277e-09 -2.1081e-09 -4.58865e-09 2.90508e-09 -1.21296e-09 -2.65191e-09 1.68277e-09 7.73091 5.47488 0.417314 -1.21296e-09 -2.65191e-09 1.68277e-09 2.90554 0.965183 0.102902 -1.21296e-09 -2.65191e-09 1.68278e-09 10.2786 0.731801 0.0259123 -1.21297e-09 -2.65191e-09 1.68279e-09 2.22167 -0.733487 -0.20892 -2.03251e-14 -2.39673e-14 4.64131e-14 -83.0043 39.119 -8.56855 12.2259 -5.44736 -22.2201 0.0146813 -3.34943 0.47131 -1.53803e-09 -1.0867e-09 -2.30641e-10 -2.66442e-09 -1.88276e-09 -3.98764e-10 -1.53804e-09 -1.0867e-09 -2.30629e-10 -7.73091 5.47488 -0.417314 -1.53803e-09 -1.0867e-09 -2.30638e-10 -2.90554 0.965183 -0.102902 -1.53804e-09 -1.08671e-09 -2.30639e-10 -10.2786 0.731801 -0.0259123 -1.53803e-09 -1.0867e-09 -2.30648e-10 -2.22167 -0.733487 0.20892 -2.03217e-16 0.0 -3.88251e-19 -0.239814 -7.37905 -20.4953 -0.163479 29.6104 0.774782 -16.8123 -10.9072 -47.4928 2.03217e-16 0.0 3.88251e-19 3.0876 -19.7197 -11.1561 0.193098 31.9775 -0.421089 -0.452528 -10.4141 -3.28431
